<svg fill="none" height="822" viewBox="0 0 823 822" width="823" xmlns="http://www.w3.org/2000/svg"><path d="m411.5 8.21094c222.18 0 402.39 180.17506 402.39 402.39906 0 222.19-180.17 402.4-402.39 402.4-222.18 0-402.39014-180.17-402.39014-402.4 0-222.186 180.17014-402.39906 402.39014-402.39906z" style="fill-rule:evenodd;clip-rule:evenodd;stroke:#115799;stroke-width:16.426;stroke-linecap:round;stroke-linejoin:round"/><path clip-rule="evenodd" d="m411.5 8.21094c222.18 0 402.39 180.17506 402.39 402.39906 0 222.19-180.17 402.4-402.39 402.4-222.18 0-402.39014-180.17-402.39014-402.4 0-222.186 180.17014-402.39906 402.39014-402.39906z" fill="#fefefe" fill-rule="evenodd"/><path clip-rule="evenodd" d="m411.5 23.251c213.9 0 387.35 173.461 387.35 387.359 0 213.9-173.45 387.36-387.35 387.36s-387.3501-173.46-387.3501-387.36c0-213.898 173.4501-387.359 387.3501-387.359z" fill="#115799" fill-rule="evenodd"/><path clip-rule="evenodd" d="m611.16 386.52c-155.88-8.83-36.91 156.5-200.77 244.4 211.51-22.48 123.81-192.91 200.77-244.4z" fill="#fefefe" fill-rule="evenodd"/><path clip-rule="evenodd" d="m434.14 200.318c-11.36 55.288-123.16 81.532-176.57 126.382-96.38 84.3-53.48 214.48 67.22 206.15 25.17-1.42 67.6-29.69 65.42 8.98-12.7 75.24-95.88 81.65-150.59 44.81-2.84-1.68-6.6.62-3.65 3.42 92.81 69.48 195.75 32.5 229.9-15.31 46.8-65.53 31.07-174.27 85.67-190.69-161.06-23.48-109.88 80.31-196.29 122.82-60.88 41.01-169.5-43.4-63.22-121.51 52.37-33.65 111.11-19.34 158.22-51.49 51.87-52.644 43.01-96.652-16.15-133.562z" fill="#fefefe" fill-rule="evenodd"/><path clip-rule="evenodd" d="m343.59 434.71c3.42-2.27 7.56-3.61 12.05-3.61 11.51 0 20.87 8.75 20.87 19.53s-9.36 19.53-20.87 19.53c-4.49 0-8.67-1.34-12.05-3.61v.27h-.23c1.23 2.73 1.96 5.83 1.96 9.09 0 11.51-8.75 20.88-19.53 20.88s-19.53-9.37-19.53-20.88c0-2.8.5-5.48 1.46-7.94-2.88 1.38-6.14 2.19-9.59 2.19-11.51 0-20.88-8.75-20.88-19.53s9.37-19.53 20.88-19.53c4.48 0 8.63 1.31 12 3.57-2.45-3.49-3.91-7.83-3.91-12.51 0-11.51 8.75-20.87 19.53-20.87s19.53 9.36 19.53 20.87c0 3.03-.61 5.95-1.73 8.56v3.99zm-26.32 3.72h18.15v18.15h-18.15z" fill="#fefefe" fill-rule="evenodd"/><path d="m98.6599 396.76-.31-3.45c3.4501-.58 5.1401-3.03 4.9501-7.37-.46-4.1-2.23-5.98-5.3001-5.71-1.99.07-3.0701 1.26-3.1801 3.56l-1.11 7.95c-.77 4.18-3.0699 6.44-6.9899 6.75-5.1.23-8.05-3.15-8.82-10.09-.35-3.99.23-6.79 1.69-8.44 1.34-2.15 3.53-3.26 6.64-3.46l.3 3.61c-4.18.35-6.14 3.03-5.79 8.02.5 4.79 2.26 7.1 5.25 6.94 2.54.08 4-2.03 4.42-6.4l.73-5.8c.65-3.95 2.68-6.1 6.1-6.41 5.4101-.15 8.4801 2.81 9.2001 8.87.5 6.79-2.11 10.59-7.7801 11.35zm-1.35 26.05 11.2401-.96.31 3.76-27.3901 2.34-.31-3.76 12.74-1.07-1.23-14.39-12.74 1.08-.3-3.76 27.3901-2.34.31 3.72-11.2401.96 1.22 14.38zm-4.29 26.78-1.92-10.93-8.33-1.46-.65-3.72 28.8501 5.52.73 4.15-25.4001 14.46-.69-3.99 7.37-4.03zm1.57-10.32 1.46 8.44 11.2801-6.06-.04-.15-12.7401-2.19zm.84 40.52 21.4901-5.68.92 3.49-26.5501 7.06-1.07-4.06 17.9101-19.23-.04-.15-21.4801 5.68-.9201-3.49 26.5502-7.06 1.15 4.33-17.9601 19.07zm-2.45 12.78 26.5901-7.06 2.87 10.89c1.5 7.18-1.84 12.05-9.97 14.58-9.02 1.88-14.5802-.69-16.6502-7.71l-2.8399-10.74zm24.6301-2.65-20.6001 5.45 1.84 6.98c1.5301 4.99 5.6801 6.68 12.3901 5.1 6.64-1.95 9.36-5.6 8.13-10.86zm3.8 46.88c6.6-2.95 9.01-7.29 7.25-13.04-2.49-5.72-7.18-7.33-14.08-4.91-6.68 2.76-8.98 7.06-6.95 12.93 2.42 5.48 7.03 7.17 13.82 5.02zm1.34 3.5c-8.79 2.57-14.73.07-17.96-7.49-2.76-8.05.04-13.92 8.37-17.65 8.98-2.87 15.12-.38 18.41 7.45 2.69 7.86-.26 13.77-8.86 17.69zm1.34 25.32 20.03-9.71 1.57 3.22-24.74 12.01-1.84-3.8 13.92-22.25-.07-.11-19.99 9.7-1.58-3.26 24.75-12.01 1.96 4.07-13.97 22.14zm16.08 18.88 2.84-1.39 5.25 10.82-13.23 6.41-1.04-2.15 2.73-2.3c-3.23-.88-5.68-3.03-7.45-6.41-1.65-3.41-2.03-6.4-1.19-8.94 1.08-3.95 3.92-6.94 8.52-8.97 8.36-3.38 14.54-1.54 18.53 5.52 2.53 6.33 1.54 11.17-2.99 14.47l-1.57-3.23c2.95-2.65 3.49-5.98 1.68-9.97-2.99-5.03-7.67-6.07-14.08-3.19-6.83 3.3-8.94 7.71-6.29 13.24.88 2.03 2.23 3.49 4.11 4.33 2.26 1.04 4.91.81 7.86-.65l-3.68-7.56zm36.72 26.43 2.34 2.92-13.82 11.12c-5.33 3.92-10.35 3.11-15-2.38-4.1-5.41-3.83-10.16.89-14.19l14.27-11.51 2.34 2.91-13.47 10.82c-3.91 3.15-4.45 6.53-1.65 10.21 3.03 3.76 6.56 4.07 10.59.92l13.47-10.82zm.92 37.52 17.3-13.96 2.26 2.8-21.4 17.23-2.65-3.26 8.55-24.83-.07-.11-17.31 13.96-2.26-2.8 21.41-17.23 2.84 3.53-8.63 24.71zm26.66-5.6-19.14 19.72-2.69-2.61 19.15-19.72zm-3.41 29.2 20.72-13.5 3.3 2.6-24.9 15.39-3.19-2.49 9.06-27.86 3.29 2.61-8.32 23.25zm29.96 24.63-2.03 2.61-15.96-12.51 16.99-21.6 15.7 12.36-1.96 2.49-12.74-10.01-5.29 6.75 11.81 9.28-2.03 2.61-11.82-9.28-5.64 7.21 13.01 10.21zm13.97-2.64-6.14 10.16-3.22-1.95 14.23-23.52 10.93 6.6c5.11 3.18 6.45 6.86 4.03 11.05-1.61 2.64-3.87 3.87-6.75 3.64 1.42 1.69 1.46 3.76.12 6.22l-2.31 4.41c-.96 1.19-1.03 2.19-.23 3.03l-.3.5-3.99-2.42c.07-.54.42-1.38 1.03-2.53.65-1.27 1.31-2.46 2.04-3.68 1.8-2.77 1.22-5.03-1.69-6.8l-7.71-4.68zm6.52-10.79-4.91 8.1 7.44 4.53c3.11 1.99 5.53 1.61 7.25-1.23 1.46-2.61.85-4.8-1.84-6.56l-7.98-4.84zm36.41 24.14-3.15-1.46c1.23-3.3-.07-5.95-3.91-7.94-3.76-1.65-6.29-1.08-7.6 1.72-.96 1.77-.46 3.27 1.54 4.53l6.29 4.95c3.26 2.72 4.03 5.87 2.38 9.4-2.34 4.53-6.75 5.41-13.16 2.61-3.65-1.69-5.79-3.61-6.45-5.68-1.19-2.22-1.07-4.68.35-7.48l3.26 1.53c-1.8 3.8-.42 6.83 4.07 9.06 4.41 1.96 7.25 1.57 8.63-1.08 1.34-2.14.23-4.48-3.34-7.02l-4.64-3.53c-3.11-2.57-3.95-5.37-2.49-8.48 2.57-4.75 6.67-5.94 12.27-3.53 6.1 3 8.1 7.14 5.95 12.44zm11.86-4.41-9.02 25.97-3.57-1.23 9.02-25.97zm5.06 4.91 1.04-3 21.02 7.29-1.03 3-8.79-3.07-7.98 22.98-3.42-1.19 7.98-22.98-8.78-3.07zm32.46 22.33-2.53 10.82-3.65-.85 2.53-10.82-6.37-18.3 4.26 1 4.61 14.65 10.74-11.05 4.26 1-13.81 13.58zm44.96 3.45c.5-7.21-2.22-11.4-8.13-12.51-6.21-.46-9.86 2.92-10.97 10.13-.69 7.18 2.03 11.24 8.13 12.24 5.99.46 9.63-2.84 10.94-9.82zm3.73.46c-1.85 8.94-6.83 13.08-15.04 12.35-8.41-1.34-12.28-6.59-11.67-15.69 1.69-9.28 6.76-13.54 15.23-12.77 8.21 1.34 12.01 6.71 11.48 16.11zm9.4.27-.27 12.47-3.76-.08.53-27.47 19.07.38-.07 3.15-15.31-.31-.16 8.56 13.51.27-.08 3.3-13.5-.27zm48.65-9.17-3.46.15c-.46-3.49-2.88-5.22-7.17-5.22-4.11.31-6.06 2-5.91 5.11 0 1.99 1.15 3.1 3.45 3.3l7.91 1.42c4.14.88 6.33 3.3 6.52 7.21.07 5.1-3.42 7.94-10.4 8.48-3.99.19-6.79-.46-8.36-2-2.08-1.38-3.15-3.64-3.19-6.75l3.61-.19c.19 4.18 2.8 6.21 7.83 6.06 4.79-.34 7.17-1.99 7.13-5.03.19-2.53-1.92-4.06-6.25-4.64l-5.76-.92c-3.95-.8-6.02-2.91-6.17-6.29.03-5.41 3.1-8.37 9.17-8.86 6.79-.23 10.51 2.49 11.08 8.17zm28.31-4.99-3.57.5c-1.38-3.45-4.18-4.99-8.36-4.6-5.72 1.18-8.17 5.25-7.41 12.23 1.04 7.56 4.61 10.9 10.63 10.06 4.14-.69 6.37-3.57 6.68-8.67l3.56-.5c-.26 6.9-3.79 10.97-10.58 12.24-7.98.8-12.7-3.34-14.16-12.43-.96-9.17 2.65-14.51 10.82-16.04 6.4-.58 10.51 1.84 12.35 7.25zm7.1-11.24 6.1 26.82-3.69.84-6.1-26.82zm33.19 15.23 1.07 3.15-19.18 6.56-8.91-26.02 18.92-6.44 1.04 2.99-15.35 5.26 2.76 8.09 14.2-4.83 1.07 3.15-14.19 4.83 2.95 8.67 15.65-5.33zm22.29-10.55-8.98-20.34 3.3-1.45 11.12 25.13-3.83 1.69-21.76-14.7-.11.08 8.98 20.33-3.3 1.46-11.13-25.13 4.11-1.8 21.63 14.73zm25.86-26.93-3.3 1.45c-2.31-2.91-5.38-3.64-9.33-2.11-5.14 2.73-6.4 7.33-3.76 13.82 3.07 6.94 7.41 9.2 13.01 6.75 3.8-1.8 5.14-5.18 4.03-10.17l3.3-1.46c1.65 6.72-.62 11.59-6.83 14.66-7.44 2.95-13.12.27-17.04-8.06-3.45-8.55-1.45-14.69 5.99-18.41 5.98-2.31 10.63-1.12 13.89 3.56zm29.85.19 1.61 2.91-17.77 9.79-13.27-24.1 17.49-9.63 1.54 2.76-14.2 7.83 4.15 7.48 13.16-7.25 1.61 2.92-13.16 7.25 4.41 8.02 14.46-7.98zm22.52-20.38-9.21 6.18 2.07 8.21-3.11 2.11-6.71-28.58 3.49-2.34 23.56 17.3-3.38 2.27-6.67-5.11zm-10.06 2.77 7.1-4.76-10.13-7.83-.11.08 3.14 12.54zm34.73-19.8-13.97-17.31 2.8-2.26 17.23 21.41-3.26 2.65-24.83-8.56-.11.08 13.96 17.3-2.8 2.27-17.22-21.41 3.53-2.84 24.7 8.63zm11.39-4.68-19.37-19.49 7.98-7.95c5.44-4.87 11.35-4.41 17.61 1.35 6.14 6.87 6.71 12.97 1.65 18.26zm-14.62-19.99 15.04 15.12 5.11-5.11c3.53-3.8 2.95-8.25-1.77-13.27-5.02-4.76-9.51-5.3-13.47-1.61zm20.03-21.56-2.42-2.04 14.35-16.99 2.42 2.03-6.02 7.14 18.6 15.69-2.3 2.76-18.6-15.69-6.03 7.13zm44.16-25.29 2.73 1.84-11.4 16.77-22.75-15.42 11.2-16.54 2.61 1.76-9.09 13.43 7.1 4.8 8.44-12.43 2.72 1.84-8.44 12.43 7.6 5.14 9.28-13.66zm.04-34.07-1.69 3.18c-3.6-.92-6.48.47-8.63 4.07-2.38 5.3-.54 9.71 5.56 13.2 6.72 3.61 11.51 2.69 14.39-2.69 1.88-3.76.88-7.25-3.07-10.51l1.69-3.18c5.45 4.26 6.67 9.51 3.68 15.77-4.03 6.9-10.17 8.28-18.38 4.14-7.98-4.6-10.2-10.67-6.63-18.19 3.3-5.52 7.67-7.44 13.12-5.75zm11.59-19.95-10.44-4.26 1.42-3.49 25.48 10.36-1.42 3.49-11.82-4.8-5.45 13.36 11.82 4.79-1.42 3.49-25.48-10.36 1.42-3.49 10.44 4.26zm19.41-23.67-21.45-5.84.92-3.49 26.55 7.18-1.11 4.06-25.09 7.68-.04.15 21.45 5.83-.92 3.5-26.55-7.18 1.19-4.34 25.05-7.52zm-.84-33.35c-7.18-.72-11.48 1.81-12.82 7.68-.69 6.18 2.57 9.94 9.75 11.32 7.13.96 11.32-1.61 12.5-7.72.66-5.98-2.49-9.7-9.43-11.24zm.61-3.72c8.86 2.15 12.82 7.29 11.82 15.43-1.65 8.36-7.02 12.04-16.08 11.12-9.21-1.99-13.27-7.21-12.24-15.65 1.61-8.13 7.14-11.78 16.5-10.9zm-12.12-12.12 23.86 3.84 2.23-13.78 3.26.54-2.84 17.49-27.13-4.37zm16.95-37.87c-7.21 0-11.2 2.99-11.93 8.98-.04 6.21 3.57 9.63 10.86 10.2 7.21.2 11.09-2.8 11.63-8.97.03-6.03-3.5-9.4-10.59-10.21zm.2-3.76c9.05 1.19 13.5 5.91 13.35 14.12-.77 8.48-5.72 12.74-14.85 12.74-9.36-1.04-13.97-5.8-13.81-14.31.77-8.29 5.83-12.47 15.27-12.55zm1.68-17.23-3.14.16-.62-12.01 14.7-.73.11 2.38-3.41 1.07c2.61 2.07 4.07 5.03 4.34 8.83.19 3.79-.62 6.71-2.42 8.71-2.53 3.22-6.33 4.87-11.36 4.91-9.01-.16-14-4.26-14.89-12.36.16-6.83 2.96-10.89 8.41-12.16l.19 3.61c-3.76 1.3-5.56 4.14-5.45 8.55.81 5.8 4.68 8.6 11.7 8.44 7.6-.38 11.24-3.6 10.94-9.7 0-2.23-.69-4.07-2.07-5.61-1.69-1.84-4.19-2.64-7.49-2.49l.43 8.4zm-1.11-29.77 11.09-.54.19 3.76-11.09.54-15.84 11.16-.23-4.33 12.81-8.44-13.58-7.29-.23-4.34 16.88 9.56z" stroke="#fefefe" stroke-linecap="round" stroke-linejoin="round" stroke-width=".411677"/><g fill="#fefefe"><path d="m98.6599 396.76-.31-3.45c3.4501-.58 5.1401-3.03 4.9501-7.37-.46-4.1-2.23-5.98-5.3001-5.71-1.99.07-3.0701 1.26-3.1801 3.56l-1.11 7.95c-.77 4.18-3.0699 6.44-6.9899 6.75-5.1.23-8.05-3.15-8.82-10.09-.35-3.99.23-6.79 1.69-8.44 1.34-2.15 3.53-3.26 6.64-3.46l.3 3.61c-4.18.35-6.14 3.03-5.79 8.02.5 4.79 2.26 7.1 5.25 6.94 2.54.08 4-2.03 4.42-6.4l.73-5.8c.65-3.95 2.68-6.1 6.1-6.41 5.4101-.15 8.4801 2.81 9.2001 8.87.5 6.79-2.11 10.59-7.7801 11.35zm-1.35 26.05 11.2401-.96.31 3.76-27.3901 2.34-.31-3.76 12.74-1.07-1.23-14.39-12.74 1.08-.3-3.76 27.3901-2.34.31 3.72-11.2401.96 1.22 14.38zm-4.29 26.78-1.92-10.93-8.33-1.46-.65-3.72 28.8501 5.52.73 4.15-25.4001 14.46-.69-3.99 7.37-4.03zm1.57-10.32 1.46 8.44 11.2801-6.06-.04-.15-12.7401-2.19zm.84 40.52 21.4901-5.68.92 3.49-26.5501 7.06-1.07-4.06 17.9101-19.23-.04-.15-21.4801 5.68-.9201-3.49 26.5502-7.06 1.15 4.33-17.9601 19.07zm-2.45 12.78 26.5901-7.06 2.87 10.89c1.5 7.18-1.84 12.05-9.97 14.58-9.02 1.88-14.5802-.69-16.6502-7.71l-2.8399-10.74zm24.6301-2.65-20.6001 5.45 1.84 6.98c1.5301 4.99 5.6801 6.68 12.3901 5.1 6.64-1.95 9.36-5.6 8.13-10.86zm3.8 46.88c6.6-2.95 9.01-7.29 7.25-13.04-2.49-5.72-7.18-7.33-14.08-4.91-6.68 2.76-8.98 7.06-6.95 12.93 2.42 5.48 7.03 7.17 13.82 5.02zm1.34 3.5c-8.79 2.57-14.73.07-17.96-7.49-2.76-8.05.04-13.92 8.37-17.65 8.98-2.87 15.12-.38 18.41 7.45 2.69 7.86-.26 13.77-8.86 17.69zm1.34 25.32 20.03-9.71 1.57 3.22-24.74 12.01-1.84-3.8 13.92-22.25-.07-.11-19.99 9.7-1.58-3.26 24.75-12.01 1.96 4.07-13.97 22.14zm16.08 18.88 2.84-1.39 5.25 10.82-13.23 6.41-1.04-2.15 2.73-2.3c-3.23-.88-5.68-3.03-7.45-6.41-1.65-3.41-2.03-6.4-1.19-8.94 1.08-3.95 3.92-6.94 8.52-8.97 8.36-3.38 14.54-1.54 18.53 5.52 2.53 6.33 1.54 11.17-2.99 14.47l-1.57-3.23c2.95-2.65 3.49-5.98 1.68-9.97-2.99-5.03-7.67-6.07-14.08-3.19-6.83 3.3-8.94 7.71-6.29 13.24.88 2.03 2.23 3.49 4.11 4.33 2.26 1.04 4.91.81 7.86-.65l-3.68-7.56zm36.72 26.43 2.34 2.92-13.82 11.12c-5.33 3.92-10.35 3.11-15-2.38-4.1-5.41-3.83-10.16.89-14.19l14.27-11.51 2.34 2.91-13.47 10.82c-3.91 3.15-4.45 6.53-1.65 10.21 3.03 3.76 6.56 4.07 10.59.92l13.47-10.82zm.92 37.52 17.3-13.96 2.26 2.8-21.4 17.23-2.65-3.26 8.55-24.83-.07-.11-17.31 13.96-2.26-2.8 21.41-17.23 2.84 3.53-8.63 24.71zm26.66-5.6-19.14 19.72-2.69-2.61 19.15-19.72zm-3.41 29.2 20.72-13.5 3.3 2.6-24.9 15.39-3.19-2.49 9.06-27.86 3.29 2.61-8.32 23.25zm29.96 24.63-2.03 2.61-15.96-12.51 16.99-21.6 15.7 12.36-1.96 2.49-12.74-10.01-5.29 6.75 11.81 9.28-2.03 2.61-11.82-9.28-5.64 7.21 13.01 10.21zm13.97-2.64-6.14 10.16-3.22-1.95 14.23-23.52 10.93 6.6c5.11 3.18 6.45 6.86 4.03 11.05-1.61 2.64-3.87 3.87-6.75 3.64 1.42 1.69 1.46 3.76.12 6.22l-2.31 4.41c-.96 1.19-1.03 2.19-.23 3.03l-.3.5-3.99-2.42c.07-.54.42-1.38 1.03-2.53.65-1.27 1.31-2.46 2.04-3.68 1.8-2.77 1.22-5.03-1.69-6.8l-7.71-4.68zm6.52-10.79-4.91 8.1 7.44 4.53c3.11 1.99 5.53 1.61 7.25-1.23 1.46-2.61.85-4.8-1.84-6.56l-7.98-4.84zm36.41 24.14-3.15-1.46c1.23-3.3-.07-5.95-3.91-7.94-3.76-1.65-6.29-1.08-7.6 1.72-.96 1.77-.46 3.27 1.54 4.53l6.29 4.95c3.26 2.72 4.03 5.87 2.38 9.4-2.34 4.53-6.75 5.41-13.16 2.61-3.65-1.69-5.79-3.61-6.45-5.68-1.19-2.22-1.07-4.68.35-7.48l3.26 1.53c-1.8 3.8-.42 6.83 4.07 9.06 4.41 1.96 7.25 1.57 8.63-1.08 1.34-2.14.23-4.48-3.34-7.02l-4.64-3.53c-3.11-2.57-3.95-5.37-2.49-8.48 2.57-4.75 6.67-5.94 12.27-3.53 6.1 3 8.1 7.14 5.95 12.44zm11.86-4.41-9.02 25.97-3.57-1.23 9.02-25.97zm5.06 4.91 1.04-3 21.02 7.29-1.03 3-8.79-3.07-7.98 22.98-3.42-1.19 7.98-22.98-8.78-3.07zm32.46 22.33-2.53 10.82-3.65-.85 2.53-10.82-6.37-18.3 4.26 1 4.61 14.65 10.74-11.05 4.26 1-13.81 13.58zm44.96 3.45c.5-7.21-2.22-11.4-8.13-12.51-6.21-.46-9.86 2.92-10.97 10.13-.69 7.18 2.03 11.24 8.13 12.24 5.99.46 9.63-2.84 10.94-9.82zm3.73.46c-1.85 8.94-6.83 13.08-15.04 12.35-8.41-1.34-12.28-6.59-11.67-15.69 1.69-9.28 6.76-13.54 15.23-12.77 8.21 1.34 12.01 6.71 11.48 16.11zm9.4.27-.27 12.47-3.76-.08.53-27.47 19.07.38-.07 3.15-15.31-.31-.16 8.56 13.51.27-.08 3.3-13.5-.27zm48.65-9.17-3.46.15c-.46-3.49-2.88-5.22-7.17-5.22-4.11.31-6.06 2-5.91 5.11 0 1.99 1.15 3.1 3.45 3.3l7.91 1.42c4.14.88 6.33 3.3 6.52 7.21.07 5.1-3.42 7.94-10.4 8.48-3.99.19-6.79-.46-8.36-2-2.08-1.38-3.15-3.64-3.19-6.75l3.61-.19c.19 4.18 2.8 6.21 7.83 6.06 4.79-.34 7.17-1.99 7.13-5.03.19-2.53-1.92-4.06-6.25-4.64l-5.76-.92c-3.95-.8-6.02-2.91-6.17-6.29.03-5.41 3.1-8.37 9.17-8.86 6.79-.23 10.51 2.49 11.08 8.17zm28.31-4.99-3.57.5c-1.38-3.45-4.18-4.99-8.36-4.6-5.72 1.18-8.17 5.25-7.41 12.23 1.04 7.56 4.61 10.9 10.63 10.06 4.14-.69 6.37-3.57 6.68-8.67l3.56-.5c-.26 6.9-3.79 10.97-10.58 12.24-7.98.8-12.7-3.34-14.16-12.43-.96-9.17 2.65-14.51 10.82-16.04 6.4-.58 10.51 1.84 12.35 7.25zm7.1-11.24 6.1 26.82-3.69.84-6.1-26.82zm33.19 15.23 1.07 3.15-19.18 6.56-8.91-26.02 18.92-6.44 1.04 2.99-15.35 5.26 2.76 8.09 14.2-4.83 1.07 3.15-14.19 4.83 2.95 8.67 15.65-5.33zm22.29-10.55-8.98-20.34 3.3-1.45 11.12 25.13-3.83 1.69-21.76-14.7-.11.08 8.98 20.33-3.3 1.46-11.13-25.13 4.11-1.8 21.63 14.73zm25.86-26.93-3.3 1.45c-2.31-2.91-5.38-3.64-9.33-2.11-5.14 2.73-6.4 7.33-3.76 13.82 3.07 6.94 7.41 9.2 13.01 6.75 3.8-1.8 5.14-5.18 4.03-10.17l3.3-1.46c1.65 6.72-.62 11.59-6.83 14.66-7.44 2.95-13.12.27-17.04-8.06-3.45-8.55-1.45-14.69 5.99-18.41 5.98-2.31 10.63-1.12 13.89 3.56zm29.85.19 1.61 2.91-17.77 9.79-13.27-24.1 17.49-9.63 1.54 2.76-14.2 7.83 4.15 7.48 13.16-7.25 1.61 2.92-13.16 7.25 4.41 8.02 14.46-7.98zm22.52-20.38-9.21 6.18 2.07 8.21-3.11 2.11-6.71-28.58 3.49-2.34 23.56 17.3-3.38 2.27-6.67-5.11zm-10.06 2.77 7.1-4.76-10.13-7.83-.11.08 3.14 12.54zm34.73-19.8-13.97-17.31 2.8-2.26 17.23 21.41-3.26 2.65-24.83-8.56-.11.08 13.96 17.3-2.8 2.27-17.22-21.41 3.53-2.84 24.7 8.63zm11.39-4.68-19.37-19.49 7.98-7.95c5.44-4.87 11.35-4.41 17.61 1.35 6.14 6.87 6.71 12.97 1.65 18.26zm-14.62-19.99 15.04 15.12 5.11-5.11c3.53-3.8 2.95-8.25-1.77-13.27-5.02-4.76-9.51-5.3-13.47-1.61zm20.03-21.56-2.42-2.04 14.35-16.99 2.42 2.03-6.02 7.14 18.6 15.69-2.3 2.76-18.6-15.69-6.03 7.13zm44.16-25.29 2.73 1.84-11.4 16.77-22.75-15.42 11.2-16.54 2.61 1.76-9.09 13.43 7.1 4.8 8.44-12.43 2.72 1.84-8.44 12.43 7.6 5.14 9.28-13.66zm.04-34.07-1.69 3.18c-3.6-.92-6.48.47-8.63 4.07-2.38 5.3-.54 9.71 5.56 13.2 6.72 3.61 11.51 2.69 14.39-2.69 1.88-3.76.88-7.25-3.07-10.51l1.69-3.18c5.45 4.26 6.67 9.51 3.68 15.77-4.03 6.9-10.17 8.28-18.38 4.14-7.98-4.6-10.2-10.67-6.63-18.19 3.3-5.52 7.67-7.44 13.12-5.75zm11.59-19.95-10.44-4.26 1.42-3.49 25.48 10.36-1.42 3.49-11.82-4.8-5.45 13.36 11.82 4.79-1.42 3.49-25.48-10.36 1.42-3.49 10.44 4.26zm19.41-23.67-21.45-5.84.92-3.49 26.55 7.18-1.11 4.06-25.09 7.68-.04.15 21.45 5.83-.92 3.5-26.55-7.18 1.19-4.34 25.05-7.52zm-.84-33.35c-7.18-.72-11.48 1.81-12.82 7.68-.69 6.18 2.57 9.94 9.75 11.32 7.13.96 11.32-1.61 12.5-7.72.66-5.98-2.49-9.7-9.43-11.24zm.61-3.72c8.86 2.15 12.82 7.29 11.82 15.43-1.65 8.36-7.02 12.04-16.08 11.12-9.21-1.99-13.27-7.21-12.24-15.65 1.61-8.13 7.14-11.78 16.5-10.9zm-12.12-12.12 23.86 3.84 2.23-13.78 3.26.54-2.84 17.49-27.13-4.37zm16.95-37.87c-7.21 0-11.2 2.99-11.93 8.98-.04 6.21 3.57 9.63 10.86 10.2 7.21.2 11.09-2.8 11.63-8.97.03-6.03-3.5-9.4-10.59-10.21zm.2-3.76c9.05 1.19 13.5 5.91 13.35 14.12-.77 8.48-5.72 12.74-14.85 12.74-9.36-1.04-13.97-5.8-13.81-14.31.77-8.29 5.83-12.47 15.27-12.55zm1.68-17.23-3.14.16-.62-12.01 14.7-.73.11 2.38-3.41 1.07c2.61 2.07 4.07 5.03 4.34 8.83.19 3.79-.62 6.71-2.42 8.71-2.53 3.22-6.33 4.87-11.36 4.91-9.01-.16-14-4.26-14.89-12.36.16-6.83 2.96-10.89 8.41-12.16l.19 3.61c-3.76 1.3-5.56 4.14-5.45 8.55.81 5.8 4.68 8.6 11.7 8.44 7.6-.38 11.24-3.6 10.94-9.7 0-2.23-.69-4.07-2.07-5.61-1.69-1.84-4.19-2.64-7.49-2.49l.43 8.4zm-1.11-29.77 11.09-.54.19 3.76-11.09.54-15.84 11.16-.23-4.33 12.81-8.44-13.58-7.29-.23-4.34 16.88 9.56z"/><path clip-rule="evenodd" d="m103.49 275.941 10.93 8.518 3.11-.422 7.18 5.525s-8.48 32.608-8.94 33.228c-.46.61-3.46 4.14-3.46 4.14l-2.18-1.69s-20.14-39.055-20.72-39.246c-.58-.192-1.96.268-1.96.268s15.7 42.858 18.57 46.468c2.88 3.6 6.29 4.41 6.68 4.48.38.04 3.49-.03 6.71-8.67 3.23-8.63 8.94-30.23 10.02-32.187 1.07-1.957 3.83-7.482 3.87-8.249s.85-5.717-8.36-6.868c-2.19-.767-4.38-3.069-4.38-3.069s5.57-28.393 7.41-30.618 4.91-7.175 7.9-5.678c2.99 1.458 5.22 8.863 4.22 20.872-.96 12.009-.15 15.04-.15 15.04s4.18-12.201 4.83-17.649c.66-5.448 2.31-15.961-2.26-21.064s-10.67-1.151-12.35.115c-1.69 1.266-4.84 6.753-4.84 6.753s-9.51 28.008-8.82 29.773c.73 1.765-4.76-3.3-4.76-3.3s-1.38-3.376-2.07-3.913-3.95-.844-5.45.729c-1.54 1.573-.77 6.753-.77 6.753z" fill-rule="evenodd"/><path clip-rule="evenodd" d="m236.62 219.809c.62.23 4.22-.153 7.64.154 3.64.345 7.06 1.381 7.17 1.266 1.31-.614 3.3-1.65 4.15-3.53-7.68-11.319-13.47-20.297-20.76-31.155-.69-.959 1-2.417.46-2.839-1.53-1.304-1.61-.575-2.19-1.343-3.76-5.18-7.32-8.326-9.17-5.295l4.68 11.664c-1.76 4.144-1.84 4.489-3.64 8.633-1.8 1.535-2.42 1.496-2.92-1.343-1.19-6.484-3.49-15.846-2.72-23.558.31-3.031 1.38-5.755 2.69-8.057 2.03-4.412 9.13-23.865 7.13-26.627-2.68-3.684-10.09-1.113-12.54 1.534 3.3 1.765 6.6 2.686 4.45 7.444l-2.54 5.64-6.63-13.582c-.89-1.689-7.91-6.293-9.56-3.338-3.22 5.908 2.57 14.579 5.37 21.754 6.37 16.191-2.68 12.93-2.72 24.057l1.88-.384 4.99-3.798 1.15.23c4.1 6.829 1.46 19.069 6.02 25.323 6.33 8.709 9.21-4.566 12.43-9.477 5.68 9.323 12.2 20.296 12.09 20.603-.96 2.034-3.99 3.799-6.98 5.986z" fill-rule="evenodd"/><path clip-rule="evenodd" d="m232.79 211.176s-1.88.998-2.04 1.804c-.19.805-4.72 17.112-8.48 19.606s-4.25 3.606-4.29 4.028.76 5.794 4.14 3.684c3.42-2.111 8.13-6.753 9.71-15.232 1.57-8.48.92-13.928.92-13.928z" fill-rule="evenodd"/><path clip-rule="evenodd" d="m242.34 195.215s9.48 1.228 10.47 3.147c1 1.918 1.54 2.685 1.92 2.992.39.346 7.45 1.65 10.05.346 2.65-1.343 3.34-4.298 1.58-5.986-.77-.729-5.95-3.722-10.9-3.645-6.71.115-13.5 3.492-13.12 3.146z" fill-rule="evenodd"/><path clip-rule="evenodd" d="m314.28 69.599s-2.34-1.918-4.45.192-1.08 2.571-2.8 6.177c-1.73 3.607-4.91 10.935-5.14 11.088-.27.154-.96 2.034 1.38.461s9.47-6.9831 11.24-11.8941c1.76-4.911-.23-6.062-.23-6.062zm-10.48 29.8889s3.11-3.9909 3.96-2.1109c.84 1.88 2.3 8.173 2.3 8.173s2.15.383 1.72 2.494c-.42 2.148-2.91 8.057-2.91 8.057s5.29 25.323 6.64 30.119c1.34 4.834 4.1 15.193 3.56 17.15-.53 1.957-1.99 2.954-2.72 3.07-.77.115-2.23-.576-2.23-.576s-.65-1.305-.46-1.918c.2-.614.73-1.151.73-1.151l-2.87-12.24s-.66-.959-2.08-.23-2.34 1.803-2.34 1.803-2.07 1.727-4.22.998-2.99-1.42-3.22-1.65c-.19-.23-2.72-1.726-2.19-6.829.54-5.103 4.95-27.357 5.11-28.277.19-.921.53-.039-1.15.268-1.69.307-15.12 10.474-15.66 10.59-.57.115-.73-2.302-.61-2.686.11-.345 10.28-12.93 19.8-18.915l-1.16-6.063zm4.03 28.7761s0 15.001-.38 15.308c-.38.269-2.26.499-2.19.307.08-.23-.65-7.251-.34-7.52.3-.268 2.91-8.095 2.91-8.095zm13.24-39.174s2.22 1.2279 2.34 1.8799c.11.652 1.46 5.9471 1.46 5.9471s5.91-5.333 5.33-7.443c-.61-2.149-4.99-3.7221-6.02-3.3771-1.04.346-2.34.6911-2.34.6911zm3.41 12.278 6.1-.998s4.57 3.031 4.8 3.76-7.37 15.616-5.99 18.11c1.39 2.494 1.62 1.803 1.62 1.803l9.51-20.488s-5.06-34.109-3.72-37.678c1.34-3.568 5.26-4.911 7.02-3.338 1.77 1.574 8.33 6.83 8.48 17.573s-3.61 20.834-4.45 28.239 5.68 21.984 7.56 34.684 5.68 42.128 4.79 43.356c-1.68 2.379-3.1-2.494-3.26-3.146-1.84-7.789-7.86-33.918-8.59-39.059-.81-6.024-5.57-29.812-5.57-29.812s-6.9 14.964-10.43 17.573-4.87.46-5.49.038c-.57-.422-3.22-1.765-3.34-4.45-.07-2.686 4.53-14.005 4.42-15.962-.12-1.956-.69-2.148-.69-2.148s-3.8-2.225-3.96-3.952c-.15-1.727 1.16-4.144 1.16-4.144zm17.88-23.481 1.73 16.69s3.3-8.326 3.22-11.242c-.04-2.916 0-4.413 0-4.413l-3.07-12.277s-1.8-1.6881-2.53.5749c-.73 2.302.61 10.6281.61 10.6281z" fill-rule="evenodd"/><path clip-rule="evenodd" d="m459.96 93.8479s-1.23 3.913-2.61 5.294c-1.38 1.3821-9.67 4.6811-10.86 4.6041-1.19-.115-1 2.379-.46 3.147.54.729 2.46 1.956 4.3 2.34s2.88.576 2.88.576-1.27 8.632-3.3 11.817c-2.04 3.223-1.12 4.604-5.3 7.789-4.18 3.222-31.08 20.181-31.08 20.181s-1.49 2.456 0 3.376c1.5.921 1.81 1.305 3.84 1.343 2.07.039 25.36-15.5 25.36-15.5s-4.56 18.416-6.68 21.255c-2.11 2.84-5.9 9.823-6.56 9.823-.69 0-1.3 2.378.66 2.417 1.99.038 8.97-4.95 12.35-14.081 3.38-9.132 8.94-27.28 8.94-27.28s6.94-6.714 7.21-7.098c.23-.345.43-2.225-.57-2.225-1.04 0-2.65 1.304-2.65 1.304l3.07-11.357c.84-3.069.77-3.337 3.22-5.294 3.72-2.955 10.71-8.7101 10.28-10.1681-.53-1.956-1.41-1.112-2.3-1.112-.88 0-4.49.92-4.49.92s2.92-7.711 4.19-11.318c1.26-3.568 3.07-9.4001-2.42-9.7071s-4.38 5.026-4.76 6.484-2.34 12.354-2.34 12.354z" fill-rule="evenodd"/><path clip-rule="evenodd" d="m493.3 77.465s-2.27-.883-2.65 1.688c-.42 2.57-5.06 16.153-6.33 16.766-1.27.614-10.59 4.298-11.09 5.027-.5.69-2.18 2.685-.84 3.261 1.34.575 4.72 1.343 4.72 1.343l-.35 2.724s-7.06 10.167-7.1 11.472c-.03 1.304.93 3.299 2.08 3.683 1.11.384 5.21-.652 6.63-1.112 1.42-.461 3.07-.461 3.65-.307.61.153 1.46 2.11 1.26 3.951-.19 1.842-.57 4.413-.57 4.413s-2 2.954-2.69 3.53c-.69.575-.92.46-.92.46s-7.25-6.638-7.71-6.753-3.8-1.189-4.26-.537-.3 3.146-.3 3.146 7.52 6.561 7.63 7.52c.12.96-.88 2.111-3.3 4.106s-5.29 3.414-7.14 3.376c-1.84-.038-4.37.307-5.06.23-.65-.038-1.23-.115-1.3.729-.12.844 2.99 2.724 4.6 3.031s4.45.077 5.33-.268c.89-.307 5.76-2.417 6.6-2.916.85-.499 4.15-3.031 4.15-3.031s10.66 6.407 13.04 7.098c2.42.69 3.8.422 5.1.384 1.31-.039 2.92-1.765 3.23-2.801.3-.998.69-4.259-1.04-4.758-1.77-.499-4.76-1.266-5.87-1.803s-4.68-2.302-4.68-2.302l.08-.883s8.17-6.33 8.28-7.865c.12-1.497 1.46-4.796-.61-7.022-2.07-2.263-3.84-5.908-7.98-6.33-4.11-.384-6.72-.039-7.06.038-.35.077-2.3 0-2.3 0s3.45-7.443 4.64-8.402c1.19-.96 2.53-2.226 5.45-3.185 2.95-.959 14.58-7.865 16.23-13.198 1.65-5.372 1.19-5.218 1.19-5.218s-12.43 7.059-12.89 7.059c-.47 0-.81-.345-.81-.345.34-2.302.73-4.374 1.19-7.175.38-2.187.96-5.103.54-6.906-.27-1.074-.81-1.957-.81-1.957z" fill-rule="evenodd"/><path clip-rule="evenodd" d="m581.66 178.947s-3.15 2.763-4.76 2.533c-1.65-.23-6.94-.461-10.05-1.919s-9.1-4.143-11.21-4.374c-2.11-.23-7.17-.498-7.17-.498s-.73 3.568-.08 4.373c.66.768 1.65 2.456 3.42 3.837 1.76 1.382 6.41 3.492 7.29 4.182.88.691 2.49 1.573 2.65 2.111.19.498.88 1.88.53 2.378-.34.538-2.38 2.878-2.95 2.955-.58.077-13.62 3.875-16.81 6.254-3.18 2.417-2.22 3.261-2.22 3.261s2.26 3.146 7.56 3.031c5.33-.115 10.16-1.228 10.16-1.228l11.82 9.324s4.95 5.793 4.76 7.251-.35.959-.77 1.036-7.56 1.189-7.86 1.688c-.35.499 1.61 2.801 5.29 3.108 3.68.345 7.56.883 9.48.691s2.61-.959 2.72-2.034c.08-1.036-.23-6.33-5.83-10.935-5.6-4.604-16.5-12.162-16.5-12.162s5.72-4.413 9.29-5.218c3.56-.806 4.02-1.266 4.02-1.266s8.64 3.376 19.07-2.571c10.44-5.947 8.06-4.911 12.09-5.909 4.03-.997 11.43-3.875 13.5-7.788 2.08-3.914 1.42-4.911 1.42-4.911s-1.61-.423-2.95 1.227c-1.31 1.688-3.3 3.3-4.45 3.76-1.15.422-8.02 4.182-13.74 4.796-5.71.614-5.37-.69-5.37-.69l-1.07-.844 9.63-10.245s5.94-6.023 6.98-7.174 6.25-8.48 2.34-11.089-30.27 23.059-30.27 23.059z" fill-rule="evenodd"/><path clip-rule="evenodd" d="m691.92 256.105s-24.13 2.763-26.16 1.151c-2.04-1.611-4.49-4.834-4.26-6.369s0-5.026 1.88-6.254 2.42-3.223 7.1.499c4.68 3.76 7.59 6.292 9.51 6.906s11.97 4.067 11.97 4.067z" fill-rule="evenodd"/><path clip-rule="evenodd" d="m709.99 268.997-5.98 5.141s-4.41.46-4.99-.192c-.61-.614-4.37-12.316.35-19.376 4.72-7.059 6.52-2.225 7.79-.882 1.26 1.343 31.76 17.112 43.08 29.965s-11.32 14.043-11.93 13.774c-.61-.268-5.72-.115-7.21-1.112-.89-.576-17.31-7.789-32.62-12.739-11.62-3.76-23.21-5.64-23.21-5.64s2.42 4.106 3.99 7.636c1.61 3.529-1.22 7.673-3.41 8.517-2.19.883-13.01 5.602-13.01 5.602s12.51 12.089 13.39 13.509 2.73 5.98 1.46 7.06c-1.27 1.07-3.49.57-7.1-1.27-3.6-1.8-11.12-3.99-11.12-3.99s-5.3 10.21-13.32 7.87c-8.02-2.31-8.94-7.1-8.94-7.1s-5.68-11.59-3.07-15.849 5.41-4.604 5.41-4.604l16.65-.307 11.48-8.825.46-1.227-5.95-6.676s.38-2.916 2.07-3.837c2.57-1.42 16.04 2.187 32.27 3.683 19.3 1.765 40.09 2.724 40.09 2.724-1.8-.997-3.07-2.378-4.83-3.376-2.57-1.458-5.57-2.456-8.37-3.875l-13.43-4.566zm-49.22 38.713s-.15 2.88-.42 3.64c-.27.77 6.48 1.58 6.48 1.58s-1.61-2.61-6.02-5.22zm-10.93-5.72s3.91 2.65 2.18 6.1c-1.72 3.46-4.79 6.76-4.79 6.76-1.46-1.85-2.84-3.69-4.26-5.57-.08-.27-.35-1.11-.46-1.38l.27-2.22.53-1.38 3.03-2.88 3.5.61z" fill-rule="evenodd"/></g></svg>