<?xml version="1.0" standalone="no"?><!DOCTYPE svg PUBLIC "-//W3C//DTD SVG 1.1//EN" "http://www.w3.org/Graphics/SVG/1.1/DTD/svg11.dtd"><svg t="1769340416662" class="icon" viewBox="0 0 1024 1024" version="1.1" xmlns="http://www.w3.org/2000/svg" p-id="3738" xmlns:xlink="http://www.w3.org/1999/xlink" width="200" height="200"><path d="M1024 512c0 283.022222-228.977778 512-512 512S0 795.022222 0 512 228.977778 0 512 0s512 228.977778 512 512" fill="#FFFFFF" p-id="3739"></path><path d="M511.288889 38.4C249.6 38.4 37.688889 250.311111 37.688889 512c0 200.533333 124.444444 371.911111 300.8 440.888889-4.266667-37.688889-7.822222-94.577778 1.422222-135.822222 8.533333-36.977778 55.466667-235.377778 55.466667-235.377778s-14.222222-28.444444-14.222222-70.4c0-66.133333 38.4-115.2 85.333333-115.2 40.533333 0 59.733333 30.577778 59.733333 66.844444 0 40.533333-25.6 101.688889-39.111111 157.866667-11.377778 46.933333 23.466667 85.333333 70.4 85.333333 83.911111 0 148.622222-88.888889 148.622222-216.888889 0-113.066667-81.777778-192.711111-197.688889-192.711111-134.4 0-214.044444 100.977778-214.044444 205.511111 0 40.533333 15.644444 84.622222 35.555556 108.088889 3.555556 4.977778 4.266667 8.533333 3.555555 13.511111-3.555556 14.933333-11.377778 46.933333-12.8 53.333334-2.133333 8.533333-7.111111 10.666667-15.644444 6.4-59.022222-27.733333-96-113.777778-96-183.466667 0-149.333333 108.8-286.577778 312.888889-286.577778 164.266667 0 291.555556 117.333333 291.555555 273.066667 0 162.844444-103.111111 294.4-245.333333 294.4-47.644444 0-93.155556-24.888889-108.8-54.044444 0 0-23.466667 90.311111-29.155556 112.355555-10.666667 41.244444-39.822222 92.444444-59.022222 124.444445 44.088889 13.511111 91.022222 21.333333 140.088889 21.333333 261.688889 0 473.6-211.911111 473.6-473.6 0-260.977778-211.911111-472.888889-473.6-472.888889z" fill="#BD081C" p-id="3740"></path></svg>