<?xml version="1.0" standalone="no"?><!DOCTYPE svg PUBLIC "-//W3C//DTD SVG 1.1//EN" "http://www.w3.org/Graphics/SVG/1.1/DTD/svg11.dtd"><svg t="1769263501599" class="icon" viewBox="0 0 1024 1024" version="1.1" xmlns="http://www.w3.org/2000/svg" p-id="2412" xmlns:xlink="http://www.w3.org/1999/xlink" width="200" height="200"><path d="M253.568 577.6c2.496 18.176 5.056 36.48 7.552 55.36 15.488-11.584 30.272-23.04 45.248-34.304-1.984-2.56-43.072-18.88-52.8-21.056zM610.176 577.6c2.496 18.176 5.056 36.48 7.552 55.36 15.488-11.584 30.272-23.04 45.248-34.304-1.984-2.56-43.072-18.88-52.8-21.056z" p-id="2413" fill="#EC7099"></path><path d="M515.648 63.296c-244.224 0-442.176 197.952-442.176 442.176s197.952 442.176 442.176 442.176 442.176-197.952 442.176-442.176S759.872 63.296 515.648 63.296zM490.56 447.36h14.656c2.496 0 3.712 0.832 3.712 3.84V497.344c-5.888-0.32-11.968-0.512-18.304-0.832V447.36z m-100.096-5.504c1.664 0 2.496 1.024 2.88 3.008 1.536 15.488 2.88 30.592 4.544 46.592-5.888 0.704-11.456 0.832-17.664 1.344-2.176-16.96-4.224-33.472-6.4-50.624 5.76-0.32 11.264-0.32 16.64-0.32z m-23.872 2.688c2.368-0.32 1.664 1.664 2.048 3.008 0.512 5.696 1.152 11.072 1.664 16.64 0.832 8.768 2.048 17.152 2.88 25.92v3.392l-13.632 2.368c-3.008-16.32-5.888-32.448-8.896-49.088 5.376-0.576 10.56-1.792 15.936-2.24z m-2.496 158.912c-2.176 7.232-7.232 12.928-13.44 17.664-14.656 11.584-29.76 21.696-47.424 27.584-12.416 4.224-25.088 7.232-38.016 9.28-16.832 2.496-33.984 3.712-51.136 5.376-3.52 0.512-6.912 0-10.624 0-1.664 0-2.176-0.832-2.176-2.496-0.192-7.552-0.832-15.488-1.344-23.36-0.832-10.112-1.856-20.032-3.008-30.08-1.664-14.144-3.392-27.776-5.056-41.856-1.664-14.784-3.712-29.44-5.376-44.096-1.664-14.464-3.008-28.736-5.056-43.072-2.368-16.32-4.544-32.448-7.04-49.088-2.496-19.2-6.208-38.528-11.264-57.344-0.32-0.832 0.512-2.496 1.024-3.008 16.64-6.4 33.152-12.928 49.792-19.712 5.376-2.368 5.888-3.2 5.888 3.84 0 29.76 0 59.392 0.512 89.152 0.32 15.488 0.832 30.976 2.048 46.4 1.344 18.496 3.392 37.312 5.056 56.192 0 0.832 0.512 1.536 0.512 2.048 6.4-0.32 12.608-0.832 18.816-0.832 26.432-0.704 52.288 2.88 77.056 12.608 12.096 4.864 23.872 10.432 34.304 18.304 8.64 6.528 10.624 14.592 5.952 26.496z m22.336 38.528c-8.704-43.584-17.152-86.464-25.536-130.368 7.04-0.832 13.824-2.048 20.544-2.88 4.864-0.704 9.92-0.704 14.656-1.152 2.688-0.32 4.352 0.832 4.736 3.392 1.024 6.72 2.176 13.44 3.008 20.544 1.536 11.456 2.496 23.04 3.712 34.496 1.152 10.112 2.176 20.032 3.392 30.08 1.152 10.624 2.496 21.376 3.84 32.448 0.32 3.008 0.832 6.4 1.152 9.728-9.792 1.216-19.392 2.368-29.504 3.712z m71.872-12.608c-8.768-0.832-17.152-1.344-26.432-2.176-7.936-79.872-14.656-160.448-29.76-240.896 4.864-0.512 9.92-1.152 14.976-1.664a800.19 800.19 0 0 0 17.472-1.152c4.864-0.32 6.72 0.832 7.04 5.568l2.496 38.016c1.152 17.152 2.496 34.304 3.712 51.456 0.832 12.416 1.344 24.704 2.496 37.184 1.152 13.632 2.496 27.072 3.712 40.512 1.152 9.728 2.048 20.032 2.88 29.76 1.152 10.624 2.368 21.376 3.008 32.448l0.832 9.28c0.064 1.664-0.768 1.984-2.432 1.664z m23.168-182.144c2.176 0 3.008 0.512 3.008 3.008-0.32 6.72 0 13.824 0 20.544v25.536c-5.056 0.512-9.6 0.832-14.144 1.152-1.344-16.32-2.496-32.768-3.84-50.304h14.976z m2.56 197.632c-0.832 0-2.176-1.344-2.176-2.176-1.344-14.656-2.496-29.248-3.84-43.904-1.152-13.44-2.496-27.264-3.712-40.704-1.152-13.824-2.496-27.776-3.712-41.856 0-0.832 0-1.664-0.32-2.88 3.392-0.704 6.4-1.152 9.728-1.152 8.768 0 17.664 0.192 26.432 0.512 2.176 0 3.392 1.664 3.392 3.712 0.192 4.544 0.512 8.768 0.512 13.312 0 20.544-0.32 41.408 0 61.888 0.32 16.64 0.832 32.832 1.152 49.472 0 0.832 0 2.048 0.32 3.84-9.472-0.064-18.88 0.256-27.776-0.064zM847.168 447.36h14.656c2.496 0 3.712 0.832 3.712 3.84V497.344c-5.888-0.32-11.968-0.512-18.304-0.832V447.36z m-100.096-5.504c1.664 0 2.496 1.024 2.88 3.008 1.536 15.488 2.88 30.592 4.544 46.592-5.888 0.704-11.456 0.832-17.664 1.344-2.176-16.96-4.224-33.472-6.4-50.624 5.696-0.32 11.264-0.32 16.64-0.32z m-23.872 2.688c2.368-0.32 1.664 1.664 2.048 3.008 0.512 5.696 1.152 11.072 1.664 16.64 0.832 8.768 2.048 17.152 2.88 25.92v3.392l-13.632 2.368c-3.008-16.32-5.888-32.448-8.896-49.088 5.312-0.576 10.56-1.792 15.936-2.24z m-2.688 158.784c-2.176 7.232-7.232 12.928-13.44 17.664-14.656 11.584-29.76 21.696-47.424 27.584-12.416 4.224-25.088 7.232-38.016 9.28-16.832 2.496-33.984 3.712-51.136 5.376-3.52 0.512-6.912 0-10.624 0-1.664 0-2.176-0.832-2.176-2.496-0.192-7.552-0.832-15.488-1.344-23.36-0.832-10.112-1.856-20.032-3.008-30.08-1.664-14.144-3.392-27.776-5.056-41.856-1.664-14.784-3.712-29.44-5.376-44.096-1.664-14.464-3.008-28.736-5.056-43.072-2.368-16.32-4.544-32.448-7.04-49.088-2.496-19.2-6.208-38.528-11.264-57.344-0.192-0.832 0.704-2.496 1.152-2.88 16.64-6.4 33.152-12.928 49.792-19.712 5.376-2.368 5.888-3.2 5.888 3.84 0 29.76 0 59.392 0.512 89.152 0.32 15.488 0.832 30.976 2.048 46.4 1.344 18.496 3.392 37.312 5.056 56.192 0 0.832 0.512 1.536 0.512 2.048 6.4-0.32 12.608-0.832 18.816-0.832 26.432-0.704 52.288 2.88 77.056 12.608 12.096 4.864 23.872 10.432 34.304 18.304 8.704 6.528 10.688 14.592 5.824 26.368z m22.528 38.656a13419.995 13419.995 0 0 1-25.536-130.368c7.04-0.832 13.824-2.048 20.544-2.88 4.864-0.704 9.92-0.704 14.656-1.152 2.688-0.32 4.352 0.832 4.736 3.392 1.024 6.72 2.176 13.44 3.008 20.544 1.536 11.456 2.496 23.04 3.712 34.496 1.152 10.112 2.176 20.032 3.392 30.08 1.152 10.624 2.496 21.376 3.84 32.448 0.32 3.008 0.832 6.4 1.152 9.728-9.792 1.216-19.392 2.368-29.504 3.712z m71.808-12.608c-8.768-0.832-17.152-1.344-26.432-2.176-7.936-79.872-14.656-160.448-29.76-240.896 4.864-0.512 9.92-1.152 14.976-1.664a800.19 800.19 0 0 0 17.472-1.152c4.864-0.32 6.72 0.832 7.04 5.568l2.496 38.016c1.152 17.152 2.496 34.304 3.712 51.456 0.832 12.416 1.344 24.704 2.496 37.184 1.152 13.632 2.496 27.072 3.712 40.512 1.152 9.728 2.048 20.032 2.88 29.76 1.152 10.624 2.368 21.376 3.008 32.448l0.832 9.28c0.128 1.664-0.704 1.984-2.432 1.664z m23.232-182.144c2.176 0 3.008 0.512 3.008 3.008-0.32 6.72 0 13.824 0 20.544v25.536c-5.056 0.512-9.6 0.832-14.144 1.152-1.344-16.32-2.496-32.768-3.84-50.304h14.976z m2.56 197.632c-0.832 0-2.176-1.344-2.176-2.176-1.344-14.656-2.496-29.248-3.84-43.904-1.152-13.44-2.496-27.264-3.712-40.704-1.152-13.824-2.496-27.776-3.712-41.856 0-0.832 0-1.664-0.32-2.88 3.392-0.704 6.4-1.152 9.728-1.152 8.768 0 17.664 0.192 26.432 0.512 2.176 0 3.392 1.664 3.392 3.712 0.192 4.544 0.512 8.768 0.512 13.312 0 20.544-0.32 41.408 0 61.888 0.32 16.64 0.832 32.832 1.152 49.472 0 0.832 0 2.048 0.32 3.84-9.472-0.064-18.88 0.256-27.776-0.064z" p-id="2414" fill="#EC7099"></path></svg>