<?xml version="1.0" standalone="no"?><!DOCTYPE svg PUBLIC "-//W3C//DTD SVG 1.1//EN" "http://www.w3.org/Graphics/SVG/1.1/DTD/svg11.dtd"><svg t="1775893232032" class="icon" viewBox="0 0 1024 1024" version="1.1" xmlns="http://www.w3.org/2000/svg" p-id="11955" xmlns:xlink="http://www.w3.org/1999/xlink" width="200" height="200"><path d="M384 405.333333h277.333333v106.666667H384z" fill="#1EA938" p-id="11956"></path><path d="M512 42.666667a469.333333 469.333333 0 1 0 469.333333 469.333333A469.333333 469.333333 0 0 0 512 42.666667z m-234.666667 192h490.666667v64H277.333333z m448 106.666666v234.666667H320V341.333333z m42.666667 448H277.333333l-21.333333-64h128l-40.106667-82.346666 54.613334-41.173334c2.56 6.4 4.906667 12.373333 7.04 18.133334s4.48 11.946667 7.04 18.346666a147.2 147.2 0 0 0 9.6 18.133334c8.96 15.36 17.066667 30.293333 24.533333 44.8S467.2 721.066667 469.333333 725.333333h106.666667c2.56-4.266667 15.146667-9.6 22.613333-24.106666s15.573333-29.44 24.533334-44.8c3.2-5.76 6.186667-11.946667 9.173333-18.133334s5.333333-12.373333 7.466667-18.346666 4.48-11.733333 7.04-18.133334l54.613333 41.173334L661.333333 725.333333h128z" fill="#1EA938" p-id="11957"></path></svg>